<?xml version="1.0" encoding="UTF-8"?>
<svg width="22px" height="22px" viewBox="0 0 22 22" version="1.1" xmlns="http://www.w3.org/2000/svg" xmlns:xlink="http://www.w3.org/1999/xlink">
    <!-- Generator: Sketch 49.1 (51147) - http://www.bohemiancoding.com/sketch -->
    <title>复制</title>
    <desc>Created with Sketch.</desc>
    <defs></defs>
    <g id="Page-1" stroke="none" stroke-width="1" fill="none" fill-rule="evenodd">
        <g id="PDE--v1.3.1-表单元素" transform="translate(-28.000000, -120.000000)" fill="#666666" fill-rule="nonzero">
            <g id="流程图icon" transform="translate(20.000000, 114.000000)">
                <g id="复制" transform="translate(8.000000, 6.000000)">
                    <path d="M19.3,4 L6.7,4 C5.215,4 4,5.215 4,6.7 L4,19.3 C4,20.785 5.215,22 6.7,22 L19.3,22 C20.785,22 22,20.785 22,19.3 L22,6.7 C22,5.215 20.785,4 19.3,4 M19.3,5.79999999 C19.7878,5.79999999 20.2,6.21219999 20.2,6.7 L20.2,19.3 C20.2,19.7878 19.7878,20.2 19.3,20.2 L6.7,20.2 C6.21220001,20.2 5.79999999,19.7878 5.79999999,19.3 L5.79999999,6.7 C5.79999999,6.21220001 6.21219999,5.79999999 6.7,5.79999999 L19.3,5.79999999" id="Shape"></path>
                    <path d="M3.60000001,16.2 L2.7,16.2 C2.21220001,16.2 1.79999999,15.7878 1.79999999,15.3 L1.79999999,2.7 C1.79999999,2.21220001 2.21219999,1.79999999 2.7,1.79999999 L15.3,1.79999999 C15.7878,1.79999999 16.2,2.21219999 16.2,2.7 L16.2,3.5964 L18,3.5964 L18,2.7 C18,1.215 16.785,0 15.3,0 L2.7,0 C1.215,0 0,1.215 0,2.7 L0,15.3 C0,16.785 1.215,18 2.7,18 L3.60000001,18 L3.60000001,16.2 Z" id="Shape"></path>
                    <path d="M12,17 L12,9.00000001 C12,8.45 12.45,8 13,8 C13.55,8 14,8.45 14,9.00000001 L14,17 C14,17.55 13.55,18 13,18 C12.45,18 12,17.55 12,17" id="Shape"></path>
                    <path d="M9.00000001,14 C8.45,14 8,13.55 8,13 C8,12.45 8.45,12 9.00000001,12 L17,12 C17.55,12 18,12.45 18,13 C18,13.55 17.55,14 17,14 L9.00000001,14 Z" id="Shape"></path>
                </g>
            </g>
        </g>
    </g>
</svg>