<?xml version="1.0" encoding="UTF-8"?>
<svg width="16px" height="16px" viewBox="0 0 16 16" version="1.1" xmlns="http://www.w3.org/2000/svg" xmlns:xlink="http://www.w3.org/1999/xlink">
    <!-- Generator: Sketch 49.1 (51147) - http://www.bohemiancoding.com/sketch -->
    <title>删除</title>
    <desc>Created with Sketch.</desc>
    <defs></defs>
    <g id="Page-1" stroke="none" stroke-width="1" fill="none" fill-rule="evenodd">
        <g id="PDE--v1.3.1-表单元素" transform="translate(-317.000000, -123.000000)" fill="#666666" fill-rule="nonzero">
            <g id="流程图icon" transform="translate(20.000000, 114.000000)">
                <path d="M313.957091,15.957144 L306.04287,15.957144 L306.04287,8.04287558 C306.04287,7.46692531 305.575945,7 305,7 C304.424035,7 303.95713,7.46690572 303.95713,8.04287558 L303.95713,15.957144 L296.04287,15.957144 C295.466905,15.957144 295,16.4240497 295,17 C295,17.5759699 295.466905,18.0429147 296.04287,18.0429147 L303.95713,18.0429147 L303.95713,25.9571636 C303.95713,26.5330747 304.424035,27 305,27 C305.575945,27 306.04287,26.5330747 306.04287,25.9571636 L306.04287,18.0429147 L313.957091,18.0429147 C314.533095,18.0429147 315,17.5759699 315,17 C315,16.4240497 314.533095,15.957144 313.957091,15.957144 Z" id="删除" transform="translate(305.000000, 17.000000) rotate(45.000000) translate(-305.000000, -17.000000) "></path>
            </g>
        </g>
    </g>
</svg>