<?xml version="1.0" encoding="UTF-8"?>
<svg width="22px" height="19px" viewBox="0 0 22 19" version="1.1" xmlns="http://www.w3.org/2000/svg" xmlns:xlink="http://www.w3.org/1999/xlink">
    <!-- Generator: Sketch 49.1 (51147) - http://www.bohemiancoding.com/sketch -->
    <title>刷新</title>
    <desc>Created with Sketch.</desc>
    <defs></defs>
    <g id="Page-1" stroke="none" stroke-width="1" fill="none" fill-rule="evenodd">
        <g id="PDE--v1.3.1-表单元素" transform="translate(-233.000000, -122.000000)" fill="#666666" fill-rule="nonzero">
            <g id="流程图icon" transform="translate(20.000000, 114.000000)">
                <g id="刷新" transform="translate(224.000000, 17.500000) scale(-1, 1) translate(-224.000000, -17.500000) translate(213.000000, 8.000000)">
                    <path d="M12.5626151,0 C7.53280264,0 3.4222191,3.96080322 3.1407578,8.95277559 L1.49653446,7.99719747 C1.18356477,7.81528753 0.783368256,7.92325301 0.602673298,8.23830855 L0.0877933571,9.13602812 C-0.0929267596,9.45108366 0.0143073928,9.85388967 0.327277081,10.0357489 L3.80331431,12.0559346 C3.91611023,12.1214688 4.04020588,12.1491822 4.16128156,12.1432798 C4.2823824,12.1491315 4.40642773,12.1214435 4.51922365,12.0559093 L5.32303933,11.5887344 C5.32280445,11.5879238 6.21158198,11.069958 7.98937193,10.034837 C8.30239194,9.85297771 8.40960093,9.45012103 8.22893116,9.13511617 L7.7140009,8.23734592 C7.53328078,7.92231571 7.13315976,7.81435022 6.82013973,7.99626016 L5.03823088,9.03183711 C5.26130609,5.05841851 8.54522283,1.89993413 12.5625899,1.89993413 C16.7323397,1.89993413 20.112518,5.30239215 20.112518,9.49951869 C20.112518,13.6966452 16.7323397,17.0991286 12.5625899,17.0991286 C12.2344952,17.0991286 11.9065766,17.0654115 11.9082376,17.612104 L11.9082376,18.4870246 C11.9334292,19 12.2012755,19 12.5625899,19 C17.7747331,18.999012 22,14.7459015 22,9.49949336 C22.0000252,4.25308519 17.7747582,0 12.5626151,0 Z" id="Shape"></path>
                </g>
            </g>
        </g>
    </g>
</svg>