<?xml version="1.0" encoding="UTF-8"?>
<svg width="18px" height="18px" viewBox="0 0 18 18" version="1.1" xmlns="http://www.w3.org/2000/svg" xmlns:xlink="http://www.w3.org/1999/xlink">
    <!-- Generator: Sketch 49.1 (51147) - http://www.bohemiancoding.com/sketch -->
    <title>保存</title>
    <desc>Created with Sketch.</desc>
    <defs></defs>
    <g id="Page-1" stroke="none" stroke-width="1" fill="none" fill-rule="evenodd">
        <g id="PDE--v1.3.1-表单元素" transform="translate(-194.000000, -122.000000)">
            <g id="流程图icon" transform="translate(20.000000, 114.000000)">
                <g id="保存" transform="translate(174.000000, 8.000000)">
                    <g id="操作-保存" transform="translate(0.900000, 0.900000)" fill="#666666" fill-rule="nonzero">
                        <path d="M3.47142857,1.15714286 L1.73571429,1.15714286 C1.41617811,1.15714286 1.15714286,1.41617811 1.15714286,1.73571429 L1.15714286,14.4642857 C1.15714286,14.7838219 1.41617811,15.0428571 1.73571429,15.0428571 L14.4642857,15.0428571 C14.7838219,15.0428571 15.0428571,14.7838219 15.0428571,14.4642857 L15.0428571,1.73571429 C15.0428571,1.41617811 14.7838219,1.15714286 14.4642857,1.15714286 L12.7285714,1.15714286 L12.7285714,6.94285714 C12.7285714,7.5819295 12.2105009,8.1 11.5714286,8.1 L4.62857143,8.1 C3.98949908,8.1 3.47142857,7.5819295 3.47142857,6.94285714 L3.47142857,1.15714286 Z M1.15714286,0 L15.0428571,0 C15.6819295,0 16.2,0.518070504 16.2,1.15714286 L16.2,15.0428571 C16.2,15.6819295 15.6819295,16.2 15.0428571,16.2 L1.15714286,16.2 C0.518070504,16.2 0,15.6819295 0,15.0428571 L0,1.15714286 C-1.28468664e-16,0.518070504 0.518070504,0 1.15714286,0 Z M4.62857143,1.15714286 L4.62857143,6.36428571 C4.62857143,6.68382189 4.88760668,6.94285714 5.20714286,6.94285714 L10.9928571,6.94285714 C11.3123933,6.94285714 11.5714286,6.68382189 11.5714286,6.36428571 L11.5714286,1.15714286 L4.62857143,1.15714286 Z M9.83571429,2.31428571 C10.1552505,2.31428571 10.4142857,2.57332097 10.4142857,2.89285714 L10.4142857,5.20714286 C10.4142857,5.52667903 10.1552505,5.78571429 9.83571429,5.78571429 C9.51617811,5.78571429 9.25714286,5.52667903 9.25714286,5.20714286 L9.25714286,2.89285714 C9.25714286,2.57332097 9.51617811,2.31428571 9.83571429,2.31428571 Z" id="Shape"></path>
                    </g>
                    <g id="复制"></g>
                    <path d="M2.7,0 C1.215,0 0,1.215 0,2.7 L0,15.3 C0,16.785 1.215,18 2.7,18 L15.3,18 C16.785,18 18,16.785 18,15.3 L18,2.7 C18,1.215 16.785,5.99520434e-16 15.3,5.99520434e-16 L2.7,0 Z M15.3,1.79999999 C15.7878,1.79999999 16.2,2.21219999 16.2,2.7 L16.2,15.3 C16.2,15.7878 15.7878,16.2 15.3,16.2 L2.7,16.2 C2.21220001,16.2 1.79999999,15.7878 1.79999999,15.3 L1.79999999,2.7 C1.79999999,2.21220001 2.21219999,1.79999999 2.7,1.79999999 L15.3,1.79999999" id="Shape" fill="#666666" fill-rule="nonzero"></path>
                </g>
            </g>
        </g>
    </g>
</svg>