<?xml version="1.0" encoding="UTF-8"?>
<svg width="17px" height="17px" viewBox="0 0 17 17" version="1.1" xmlns="http://www.w3.org/2000/svg" xmlns:xlink="http://www.w3.org/1999/xlink">
    <!-- Generator: Sketch 49.1 (51147) - http://www.bohemiancoding.com/sketch -->
    <title>放大</title>
    <desc>Created with Sketch.</desc>
    <defs></defs>
    <g id="Page-1" stroke="none" stroke-width="1" fill="none" fill-rule="evenodd">
        <g id="PDE--v1.3.1-表单元素" transform="translate(-368.000000, -123.000000)" fill="#666666" fill-rule="nonzero">
            <g id="流程图icon" transform="translate(20.000000, 114.000000)">
                <path d="M364.113527,16.6135724 L357.386439,16.6135724 L357.386439,9.88644424 C357.386439,9.39688651 356.989553,9 356.5,9 C356.01043,9 355.613561,9.39686987 355.613561,9.88644424 L355.613561,16.6135724 L348.886439,16.6135724 C348.396869,16.6135724 348,17.0104423 348,17.5 C348,17.9895744 348.396869,18.3864775 348.886439,18.3864775 L355.613561,18.3864775 L355.613561,25.1135891 C355.613561,25.6031135 356.01043,26 356.5,26 C356.989553,26 357.386439,25.6031135 357.386439,25.1135891 L357.386439,18.3864775 L364.113527,18.3864775 C364.603131,18.3864775 365,17.9895744 365,17.5 C365,17.0104423 364.603131,16.6135724 364.113527,16.6135724 Z" id="放大"></path>
            </g>
        </g>
    </g>
</svg>